<?xml version="1.0" encoding="UTF-8"?>
<svg version="1.1" viewBox="0 0 1920 1920" width="1280" height="1280" xmlns="http://www.w3.org/2000/svg">
<path transform="translate(933,317)" d="m0 0h39l21 2 26 5 26 8 26 11 24 13 21 14 13 10 9 8 4 8 1 3v71h2l15-20 8-9 5-3 9-1 7 3 5 4 3 5 1 4v116l9-1 8 3 5 6 2 5v46l-1 68-2 23-4 23-6 22-9 25-11 23-13 22-13 18-9 11-11 12-14 14-11 9-13 10-15 10-16 9-16 8-20 8-23 7-25 5-12 1v229l-1 10h3l2-4 7-11 11-14 12-14 9-9 3-4h2l1-3 8-7 12-11 14-11 17-12 15-9 23-12 19-8 21-7 26-6 22-3 17-1h17l26 2 24 4 24 6 26 9 12 6 5 5 3 5v9l-7 16-10 20-13 21-13 17-11 13-5 6h-2l-2 4-13 12-14 11-13 9-21 12-24 10-25 7-24 4-11 1h-28l-30-4-26-7-22-8-25-12-12-7-3 4-6 10-10 21-7 18-2 7-1 305-2 9-7 7-4 2h-10l-7-4-4-5-2-5-1-445-7-21-8-18-12-23-12 6-19 10-20 8-19 6-23 5-23 3h-32l-24-3-21-5-22-8-25-12-18-12-13-10-14-12-15-15-9-11-10-13-12-19-12-22-8-18-1-3v-9l6-9 17-8 27-9 21-5 24-4 25-2h16l32 3 25 5 26 8 26 11 25 13 24 16 14 11 15 13 23 23 9 11 10 12 10 14 4 6h1v-99h-15l-24-3-20-4-24-7-24-10-23-12-17-11-12-9-11-9-12-11-18-18-9-11-10-13-10-15-12-21-9-19-9-25-6-24-3-17-2-23v-72l4-7 8-6h14v-159l4-8 13-16 11-12 16-16 11-9 18-14 20-13 21-12 23-11 26-10 29-8 22-4zm-4 36-26 4-24 6-28 10-29 14-17 10-20 14-13 11-10 9-20 20-6 8 1 8 4 12 9 19 8 12 8 10 12 13 14 12 4 3h2l1-76 5-16 8-16 10-13 10-10 15-11 21-11 20-7 21-5 20-3h46l24 4 17 5 12 6 4 5 2 6 1 57 6-3 14-12 12-11 18-18 9-11 5-6-10-7-15-10-15-8-23-10-22-7-23-5-16-2zm8 61-22 3-23 6-16 7-14 8-12 11-8 9-6 12 1 5 11 8 16 9 17 7 6 1-1-6-3-12 1-11 5-12 8-10 10-8 16-9 27-10 19-6-1-2zm60 29-36 12-19 7-14 7-9 8 1 7 6 10 9 9 13-1 20-5 25-9 6-3 1-41zm109 5-5 4-7 8-13 12-11 9-16 12-17 11-18 10-22 10-21 7-21 5-24 3h-20l-25-3-18-5-22-9-10-6h-3l1 53 14 6 26 8 19 4 24 3h35l23-4 20-6 22-9 20-10 23-14 16-12 13-10 14-12 4-3 1-62zm55 58-5 4-7 8-14 14-8 7-15 13-20 15-24 16-23 13-21 10-25 9-23 6-18 3-10 1h-28l-26-3-17-3-17-4-33-11-16-7-20-11-15-10-13-10-12-11-10-10-6-7h-1v85l10 4 25 9 26 12 25 13 18 11 20 14 16 13 8 7 10 9 20 20 9 11 10 12 3 5h3l11-19 14-21 13-17 12-14 3-3v-2h2l7-8 10-10 8-7 13-11 16-12 20-14 22-13 17-9 20-9 24-9 12-4 1-4v-71zm23 104-38 13-24 11-25 13-19 12-14 10-16 13-11 9-23 23-9 11-7 8-11 15-10 15-12 21-7 13 1 4 8 16 10 21 9 24 7 21 8 32 5 1 24-8 23-10 21-12 18-13 11-9 13-12 13-14 12-16 11-17 12-23 9-23 7-25 4-24 1-11 1-35v-54zm-476 43v49l3 23 6 24 9 24 8 16 8 15 8 12 12 16 12 14 16 16 14 11 14 10 13 8 14 8 26 11 20 6 20 4 15 2h40l1-2-10-36-11-30-12-26-10-18-11-17-14-19-9-10-7-8-11-12-15-14-17-14-20-14-20-12-23-12-17-8-30-11-19-6zm-30 294-27 3-24 5-23 7 1 5 12 20 11 16 9 11 9 10 2 3h2v2h2v2l8 7 12 10 15 10 14 8 19 8 20 6 16 3 9 1h35l21-3 22-6 19-7 25-12 5-3-1-4-15-16-7-8-15-14-14-11-15-11-20-12-22-11-22-8-23-6-25-4-12-1zm536 138-24 3-23 5-23 8-20 9-17 9-18 12-16 12-15 13-22 22-8 10v3l23 12 20 8 16 5 18 4 15 2h36l18-3 16-4 17-6 17-8 16-10 12-9 10-9 8-7 8-8 9-11 10-13 11-18 8-14-2-3-28-8-28-5-13-1z" fill="#010101"/>
</svg>
